<svg width="53" height="30" viewBox="0 0 53 30" fill="none" xmlns="http://www.w3.org/2000/svg">
<path d="M29 3.5C29 1.84315 30.3431 0.5 32 0.5C33.6569 0.5 35 1.84315 35 3.5C35 5.15685 33.6569 6.5 32 6.5C30.3431 6.5 29 5.15685 29 3.5Z" fill="url(#paint0_linear_207_6)"/>
<path d="M13.0078 29.1211C10.3385 29.1211 8.02734 28.5286 6.07422 27.3438C4.13411 26.1589 2.63672 24.4792 1.58203 22.3047C0.527344 20.1302 0 17.5521 0 14.5703V14.5312C0 11.5495 0.527344 8.97786 1.58203 6.81641C2.64974 4.64193 4.15365 2.96224 6.09375 1.77734C8.04688 0.592448 10.3516 0 13.0078 0C15.6641 0 17.9622 0.592448 19.9023 1.77734C21.8424 2.96224 23.3398 4.64193 24.3945 6.81641C25.4492 8.97786 25.9766 11.5495 25.9766 14.5312V14.5703C25.9766 17.5521 25.4492 20.1302 24.3945 22.3047C23.3398 24.4792 21.8424 26.1589 19.9023 27.3438C17.9753 28.5286 15.6771 29.1211 13.0078 29.1211ZM13.0078 25.8789C14.9479 25.8789 16.6146 25.4167 18.0078 24.4922C19.4141 23.5547 20.4948 22.2396 21.25 20.5469C22.0052 18.8542 22.3828 16.862 22.3828 14.5703V14.5312C22.3828 12.2266 21.9987 10.2279 21.2305 8.53516C20.4753 6.84245 19.3945 5.54036 17.9883 4.62891C16.582 3.70443 14.9219 3.24219 13.0078 3.24219C11.0938 3.24219 9.42708 3.70443 8.00781 4.62891C6.60156 5.54036 5.51432 6.84245 4.74609 8.53516C3.97786 10.2148 3.59375 12.2135 3.59375 14.5312V14.5703C3.59375 16.875 3.97786 18.8737 4.74609 20.5664C5.51432 22.2591 6.60156 23.5677 8.00781 24.4922C9.41406 25.4167 11.0807 25.8789 13.0078 25.8789Z" fill="black"/>
<path d="M41.5625 29.1211C39.2318 29.1211 37.2266 28.6849 35.5469 27.8125C33.8802 26.9401 32.5977 25.7292 31.6992 24.1797C30.8008 22.6172 30.3516 20.8138 30.3516 18.7695V9H33.8672V18.5352C33.8672 19.9805 34.1667 21.2565 34.7656 22.3633C35.3776 23.457 36.2565 24.3164 37.4023 24.9414C38.5482 25.5664 39.9349 25.8789 41.5625 25.8789C43.1901 25.8789 44.5703 25.5664 45.7031 24.9414C46.849 24.3164 47.7214 23.457 48.3203 22.3633C48.9193 21.2565 49.2188 19.9805 49.2188 18.5352V0.46875H52.7344V18.7695C52.7344 20.8138 52.2852 22.6172 51.3867 24.1797C50.5013 25.7292 49.2253 26.9401 47.5586 27.8125C45.8919 28.6849 43.8932 29.1211 41.5625 29.1211Z" fill="black"/>
<defs>
<linearGradient id="paint0_linear_207_6" x1="48.75" y1="2.19" x2="54.57" y2="3.63" gradientUnits="userSpaceOnUse">
<stop offset="0.0673077" stop-color="#FF3F02"/>
<stop offset="1" stop-color="#FDC103"/>
</linearGradient>
</defs>
</svg>
